# xmcd
# 
# Track frame offsets:
#     150
#     19447
#     39372
#     58502
#     70882
#     89245
#     112612
#     131425
#     148470
#     164692
# 
# Disc length: 2407
# 
# Revision: 4
# Processed by: cddbd v1.5.2PL0 Copyright (c) Steve Scherf et al.
# Submitted via: fre:ac v1.0.31
# 
DISCID=9209650a
DTITLE=Trevor Baker - From the heart
DYEAR=0
DGENRE=Country Gospel
TTITLE0=I see the word
TTITLE1=Courtesy of the father
TTITLE2=Giving
TTITLE3=Why can't things be more like that today
TTITLE4=It came from above ( the wedding song )
TTITLE5=When God was making daddies
TTITLE6=Its who you are
TTITLE7=Where are the good men
TTITLE8=I believe
TTITLE9=God brings hope
EXTD=
EXTT0=
EXTT1=
EXTT2=
EXTT3=
EXTT4=
EXTT5=
EXTT6=
EXTT7=
EXTT8=
EXTT9=
PLAYORDER=
